<?xml version="1.0" standalone="no"?>
<!DOCTYPE svg PUBLIC "-//W3C//DTD SVG 1.1//EN" "http://www.w3.org/Graphics/SVG/1.1/DTD/svg11.dtd">
<svg t="1765786208342" class="icon" viewBox="0 0 1024 1024" version="1.1" xmlns="http://www.w3.org/2000/svg" p-id="16664" xmlns:xlink="http://www.w3.org/1999/xlink" width="64" height="64">
  <path d="M512 96c-62.016 0-109.76 16.256-144 43.008-34.24 26.752-54.016 62.72-68 96-14.016 33.248-23.008 65.12-32 88-8.992 22.88-16.512 31.744-23.008 33.984C154.496 389.12 96 475.616 96 576v32h32c43.136 0 64.128 8.992 74.016 16.992 9.856 8 13.76 17.12 16 33.024 2.24 15.872 1.12 35.232 4 56.96 1.472 10.88 3.744 23.136 10.976 35.04 7.264 11.84 20.384 22.08 35.008 26.976 33.888 11.264 55.616 18.368 68.992 26.016 13.376 7.616 21.376 14.496 32 36.992 10.144 21.376 23.744 44.736 48 62.016 24.256 17.248 56.896 26.496 98.016 25.984 67.232-0.864 107.36-35.616 128-66.016 10.368-15.232 17.6-28.352 24-36.992 6.368-8.64 10.24-12 16.992-13.984 43.36-13.024 71.36-35.008 87.008-60 15.616-25.024 18.624-49.504 22.976-66.016 4.384-16.48 7.52-22.976 18.016-29.984C822.496 648 846.496 640 896 640h32v-32c0-44.128 1.504-95.488-18.016-144-19.488-48.512-63.872-91.36-136.96-108-0.768-0.128-1.664 0.256-5.024-4a102.784 102.784 0 0 1-12.992-24c-9.024-22.4-17.632-55.136-32-88.992-14.4-33.888-34.88-70.4-69.024-98.016C619.904 113.376 573.024 96 512 96z m0 64c49.28 0 79.36 12.64 102.016 31.008 22.624 18.368 37.76 44.128 49.984 72.992 12.256 28.864 20.864 60.128 32 88 5.504 13.888 11.52 26.88 20.992 39.008 9.504 12.128 23.36 24 41.024 28 57.6 13.12 78.976 36.736 92 68.992 9.856 24.512 10.112 58.112 10.976 91.008-35.52 2.976-64.64 9.376-84.992 22.976-27.008 18.144-38.4 46.016-44 67.008-5.632 21.024-7.744 36.384-15.008 48-7.232 11.648-19.104 23.136-52 33.024-22.72 6.848-39.104 22.496-49.984 36.992-10.88 14.496-17.376 27.744-25.024 38.976-15.232 22.528-26.24 37.376-76 38.016-31.488 0.384-48.352-5.76-60-14.016-11.616-8.224-20.096-20.224-27.968-36.992-14.272-30.24-33.376-52.48-57.024-65.984-23.616-13.504-48.256-20.16-80.992-31.008-0.256-0.512-2.112-2.88-3.008-8.992-1.6-12.256-0.64-33.888-4-58.016s-13.248-53.376-39.008-73.984c-17.984-14.496-43.744-21.76-73.984-26.016 9.376-61.632 41.76-112 98.016-132 33.984-12 50.72-41.6 61.984-69.984 11.264-28.384 19.264-60 31.008-88s25.6-51.648 48-68.992C429.376 172.608 460.864 160 512 160z m-96 128c-17.6 0-32 21.504-32 48s14.4 48 32 48 32-21.504 32-48S433.6 288 416 288z m128 0c-17.6 0-32 21.504-32 48s14.4 48 32 48 32-21.504 32-48S561.6 288 544 288z" p-id="16665" fill="currentColor"></path>
</svg>